<svg width="128" height="32" viewBox="0 0 128 32" fill="none" xmlns="http://www.w3.org/2000/svg">
<path d="M21.64 31.52C38.64 31.52 41.6 23.2 41.6 19.44V19H31.72C31.48 19.68 30.52 24.28 20.88 24.28C12.2 24.28 9.84 19.64 9.84 16.12V15.64C9.84 11.92 11.88 7.92 20.8 7.92C30.24 7.92 31.44 12.08 31.68 12.88H41.56V12.44C41.56 8.96 38.88 0.719999 21.64 0.719999H20C2.4 0.719999 0.08 10.04 0.08 15.44V16.6C0.08 21.88 2.76 31.52 20 31.52H21.64ZM59.5547 13.88C64.0747 13.88 66.1547 15.24 66.7547 17.52H52.3547C53.0347 15.24 55.0347 13.88 59.5147 13.88H59.5547ZM75.6347 23.4H66.8347C66.7147 23.92 65.7547 26.16 59.8347 26.16H59.7947C54.8747 26.16 52.7147 24.48 52.1947 21.96H75.7547V20.48C75.7547 15.24 73.4347 8.88 60.7947 8.88H58.3547C46.7147 8.88 43.4347 14.2 43.4347 19.72V20.6C43.4347 26.24 47.1147 31.6 58.5947 31.6H60.8747C73.7147 31.6 75.6347 26.36 75.6347 23.44V23.4ZM78.4581 31H87.3781V20.84C87.3781 17.32 89.9781 15 93.9781 15C97.9381 15 99.7381 17.04 99.7381 20.36V31H108.738V17.4C108.738 13.24 105.778 9 98.2581 9H97.9781C91.5781 9 88.3781 12.08 87.2981 13.16V9.48H78.4581V31ZM127.738 31V25.08H125.298C123.738 25.08 123.498 24.36 123.498 23.2V15.4H127.738V9.48H123.498V3.2H114.698V9.48H110.498V15.4H114.698V24.88C114.698 28.6 116.138 31 120.018 31H127.738Z" fill="white"/>
</svg>
